#!OML:ASF I:\Random Stuff\random\construction\7_22_03\Session 2\subj1.ASF
:FULLY-SPECIFIED
:DEGREES
407
root -2.18437 17.8378 5.85803 9.16856 65.7346 -4.71049
lowerback 9.65493 0.881329 2.93685
upperback 2.46604 1.51399 0.241555
thorax -2.77893 0.760156 -1.58125
lowerneck -20.1785 1.69685 1.57074
upperneck 42.0296 2.71367 1.6754
head 19.7292 1.93057 1.28433
rclavicle -1.67476e-014 9.0447e-015
rhumerus -19.1172 17.0768 -63.2965
rradius 74.4103
rwrist -31.7863
rhand -16.6582 8.90612
rfingers 7.12502
rthumb 9.56511 -20.8568
lclavicle -1.67476e-014 9.0447e-015
lhumerus -10.4409 -21.8265 74.0627
lradius 84.2994
lwrist 52.1905
lhand -9.85339 75.4449
lfingers 7.12502
lthumb -163.875 75.2059
rfemur -20.4714 6.59586 20.2201
rtibia 17.226
rfoot -7.86506 -10.43
rtoes -15.3086
lfemur -18.9617 -16.9353 -9.69079
ltibia 19.4221
lfoot -12.7706 19.6057
ltoes -31.8596
408
root -2.17565 17.8359 5.86724 9.13803 65.7629 -4.81008
lowerback 9.49507 0.921491 2.87746
upperback 2.45096 1.55506 0.237797
thorax -2.70581 0.781375 -1.55295
lowerneck -20.1277 1.51268 1.53749
upperneck 42.0663 2.47831 1.60249
head 19.7409 1.82696 1.20354
rclavicle 2.25124e-014 6.95746e-016
rhumerus -19.3865 17.0724 -63.3746
rradius 74.6009
rwrist -31.8121
rhand -16.9232 8.66209
rfingers 7.12502
rthumb 9.30948 -21.1124
lclavicle 2.25124e-014 6.95746e-016
lhumerus -10.3313 -22.0225 74.1272
lradius 84.307
lwrist 51.1893
lhand -9.83999 75.7183
lfingers 7.12502
lthumb -163.862 74.9336
rfemur -20.4183 6.44743 20.3342
rtibia 17.0749
rfoot -7.56139 -10.3501
rtoes -18.0321
lfemur -19.0775 -16.8541 -9.63819
ltibia 19.6096
lfoot -12.9263 19.5611
ltoes -31.6758
409
root -2.16708 17.8369 5.87625 9.09017 65.7801 -4.88744
lowerback 9.36168 0.945625 2.78476
upperback 2.42407 1.57315 0.239551
thorax -2.66175 0.790676 -1.49832
lowerneck -20.1139 1.39747 1.54896
upperneck 42.1565 2.32435 1.55541
head 19.7982 1.76569 1.14824
rclavicle -2.03754e-014 2.51463e-014
rhumerus -19.581 16.9793 -63.4788
rradius 74.6956
rwrist -31.6281
rhand -17.0522 8.31255
rfingers 7.12502
rthumb 9.18499 -21.4674
lclavicle -2.03754e-014 2.51463e-014
lhumerus -10.2468 -22.1505 74.155
lradius 84.2425
lwrist 50.7776
lhand -9.82656 75.8153
lfingers 7.12502
lthumb -163.849 74.8376
rfemur -20.3287 6.43433 20.391
rtibia 16.9336
rfoot -7.39422 -10.299
rtoes -18.2592
lfemur -19.1345 -16.7799 -9.60475
ltibia 19.7632
lfoot -13.0334 19.4929
ltoes -31.6778
410
root -2.15874 17.8378 5.88366 8.9071 65.8061 -5.0578
lowerback 9.27256 0.935256 2.73127
upperback 2.37464 1.55201 0.266696
thorax -2.66692 0.779335 -1.43643
lowerneck -20.0591 1.3451 1.41171
upperneck 42.2724 2.2333 1.74283
head 19.8524 1.73852 1.24993
rclavicle -5.24792e-014 1.76918e-014
rhumerus -19.7108 16.8603 -63.5781
rradius 74.6836
rwrist -31.1591
rhand -16.9006 8.17961
rfingers 7.12502
rthumb 9.33129 -21.5939
lclavicle -5.24792e-014 1.76918e-014
lhumerus -10.332 -22.2108 74.2376
lradius 84.266
lwrist 50.3065
lhand -9.84758 75.9659
lfingers 7.12502
lthumb -163.87 74.6854
rfemur -20.2046 6.45903 20.4785
rtibia 16.8322
rfoot -7.29506 -10.2821
rtoes -17.9607
lfemur -19.1091 -16.9092 -9.51369
ltibia 19.8493
lfoot -13.1666 19.5924
ltoes -31.534
411
root -2.14925 17.838 5.88958 8.62888 65.8377 -5.31968
lowerback 9.17604 0.907603 2.75179
upperback 2.30734 1.51469 0.292429
thorax -2.68508 0.759171 -1.4159
lowerneck -19.9984 1.2868 1.26193
upperneck 42.3646 2.12897 1.94236
head 19.8897 1.70537 1.35619
rclavicle -2.72832e-014 -6.4605e-015
rhumerus -19.7767 16.8446 -63.6757
rradius 74.6337
rwrist -30.7823
rhand -16.7284 8.11419
rfingers 7.12502
rthumb 9.49739 -21.6518
lclavicle -2.72832e-014 -6.4605e-015
lhumerus -10.4891 -22.3234 74.3169
lradius 84.3595
lwrist 49.5798
lhand -9.97741 76.1012
lfingers 7.12502
lthumb -163.995 74.54
rfemur -20.0828 6.37091 20.6306
rtibia 16.7536
rfoot -7.23491 -10.2169
rtoes -18.0523
lfemur -19.0465 -16.9617 -9.40876
ltibia 19.8883
lfoot -13.2497 19.6366
ltoes -31.5094
412
root -2.13919 17.8387 5.89462 8.36542 65.8223 -5.57226
lowerback 9.08101 0.88267 2.75881
upperback 2.23248 1.47963 0.315443
thorax -2.71202 0.739919 -1.39104
lowerneck -20.0007 1.20582 1.27696
upperneck 42.4067 2.03157 1.86223
head 19.9213 1.65969 1.29413
rclavicle -1.80397e-014 4.67144e-015
rhumerus -19.7098 17.019 -63.7395
rradius 74.5264
rwrist -30.429
rhand -16.8272 7.87367
rfingers 7.12502
rthumb 9.40205 -21.8966
lclavicle -1.80397e-014 4.67144e-015
lhumerus -10.6419 -22.4829 74.3443
lradius 84.443
lwrist 48.7649
lhand -10.1505 76.0977
lfingers 7.12502
lthumb -164.161 74.5301
rfemur -19.9742 6.24135 20.7897
rtibia 16.6877
rfoot -7.19922 -10.0871
rtoes -18.4257
lfemur -18.9667 -16.852 -9.33519
ltibia 19.9018
lfoot -13.2902 19.5583
ltoes -31.5452
413
root -2.12923 17.8409 5.89773 8.19542 65.78 -5.70743
lowerback 9.00856 0.852901 2.70335
upperback 2.14538 1.43299 0.332263
thorax -2.76602 0.714666 -1.33693
lowerneck -20.0574 1.09347 1.35333
upperneck 42.475 1.91311 1.6553
head 19.9894 1.59751 1.15495
rclavicle -2.06239e-015 -1.99282e-014
rhumerus -19.5732 17.3507 -63.7899
rradius 74.3356
rwrist -29.875
rhand -17.1004 7.53456
rfingers 7.12502
rthumb 9.13847 -22.2474
lclavicle -2.06239e-015 -1.99282e-014
lhumerus -10.7638 -22.6306 74.3286
lradius 84.4153
lwrist 47.9858
lhand -10.1066 76.1851
lfingers 7.12502
lthumb -164.119 74.4461
rfemur -19.8624 6.16906 20.8793
rtibia 16.6523
rfoot -7.1869 -9.97292
rtoes -18.5167
lfemur -18.8547 -16.9345 -9.29598
ltibia 19.8938
lfoot -13.304 19.6846
ltoes -31.6809
414
root -2.11853 17.8426 5.89988 8.31034 65.7124 -5.54036
lowerback 8.85418 0.819992 2.49849
upperback 2.0622 1.36473 0.325243
thorax -2.77424 0.680139 -1.21951
lowerneck -20.1029 1.00028 1.30961
upperneck 42.5235 1.77135 1.6744
head 20.0353 1.53847 1.14358
rclavicle -8.94531e-015 -5.81445e-015
rhumerus -19.4568 17.8272 -63.8591
rradius 74.1335
rwrist -29.3296
rhand -17.3642 7.27505
rfingers 7.12502
rthumb 8.8839 -22.5179
lclavicle -8.94531e-015 -5.81445e-015
lhumerus -10.8421 -22.712 74.2671
lradius 84.3198
lwrist 47.5363
lhand -10.0255 76.3268
lfingers 7.12502
lthumb -164.041 74.3106
rfemur -19.7682 6.13967 20.81
rtibia 16.6237
rfoot -7.18539 -9.89406
rtoes -18.4515
lfemur -18.7379 -16.9393 -9.42141
ltibia 19.8865
lfoot -13.3273 19.7537
ltoes -31.7084
415
root -2.10831 17.8427 5.90173 8.50908 65.6228 -5.32575
lowerback 8.60767 0.802312 2.26521
upperback 1.98269 1.31161 0.312921
thorax -2.72698 0.654034 -1.09157
lowerneck -20.1317 0.958485 1.21269
upperneck 42.5144 1.66254 1.84011
head 20.0347 1.5033 1.21969
rclavicle 1.03492e-014 8.05078e-015
rhumerus -19.3977 18.3132 -63.8878
rradius 73.9962
rwrist -29.0403
rhand -17.4944 7.11905
rfingers 7.12502
rthumb 8.75827 -22.6792
lclavicle 1.03492e-014 8.05078e-015
lhumerus -10.8643 -22.7791 74.1655
lradius 84.228
lwrist 47.5676
lhand -10.1583 76.4224
lfingers 7.12502
lthumb -164.169 74.2049
rfemur -19.7279 6.13721 20.7124
rtibia 16.588
rfoot -7.13895 -9.84957
rtoes -18.7841
lfemur -18.6608 -16.6489 -9.59986
ltibia 19.8775
lfoot -13.4019 19.5369
ltoes -31.3504
416
root -2.09951 17.8421 5.90187 8.4327 65.5652 -5.44657
lowerback 8.3458 0.803835 2.20811
upperback 1.87657 1.30099 0.329481
thorax -2.69349 0.647592 -1.03743
lowerneck -20.2438 0.872034 1.15481
upperneck 42.6102 1.51889 1.90869
head 20.132 1.4493 1.23882
rclavicle 2.31584e-014 1.66731e-014
rhumerus -19.4882 18.6486 -63.871
rradius 73.9305
rwrist -28.7935
rhand -17.4177 6.98818
rfingers 7.12502
rthumb 8.83224 -22.807
lclavicle 2.31584e-014 1.66731e-014
lhumerus -10.8055 -22.9285 74.0551
lradius 84.034
lwrist 47.7499
lhand -10.1594 76.5389
lfingers 7.12502
lthumb -164.17 74.0883
rfemur -19.7236 6.15153 20.7668
rtibia 16.5456
rfoot -7.08193 -9.82537
rtoes -19.2748
lfemur -18.644 -16.382 -9.59736
ltibia 19.869
lfoot -13.3714 19.3672
ltoes -31.5066
417
root -2.08985 17.8427 5.90045 8.25928 65.5129 -5.6703
lowerback 8.07014 0.802887 2.18773
upperback 1.75282 1.29133 0.379318
thorax -2.67028 0.641218 -0.969668
lowerneck -20.4311 0.720024 1.0695
upperneck 42.7777 1.32236 1.8963
head 20.3024 1.35982 1.2146
rclavicle -2.28043e-014 5.11871e-015
rhumerus -19.6747 18.9412 -63.8304
rradius 73.8834
rwrist -28.4139
rhand -17.2105 6.86462
rfingers 7.12502
rthumb 9.03223 -22.922
lclavicle -2.28043e-014 5.11871e-015
lhumerus -10.8111 -23.0224 73.9967
lradius 83.8229
lwrist 47.8651
lhand -9.80453 76.7137
lfingers 7.12502
lthumb -163.828 73.9409
rfemur -19.6836 6.20954 20.8482
rtibia 16.4567
rfoot -7.07104 -9.81936
rtoes -19.3303
lfemur -18.6444 -16.2243 -9.53839
ltibia 19.8986
lfoot -13.3548 19.3119
ltoes -31.7784
418
root -2.07743 17.8439 5.89839 8.1698 65.4444 -5.74145
lowerback 7.81232 0.771324 2.10331
upperback 1.65604 1.23584 0.410246
thorax -2.63124 0.613089 -0.881158
lowerneck -20.5325 0.596221 0.975765
upperneck 42.7958 1.15457 1.89588
head 20.3459 1.27881 1.19567
rclavicle -1.1163e-014 1.67849e-014
rhumerus -19.6265 19.423 -63.7857
rradius 73.654
rwrist -28.147
rhand -17.0759 6.72039
rfingers 7.12502
rthumb 9.16214 -23.0606
lclavicle -1.1163e-014 1.67849e-014
lhumerus -10.8891 -22.9639 73.8839
lradius 83.702
lwrist 48.029
lhand -9.25644 76.9191
lfingers 7.12502
lthumb -163.3 73.7792
rfemur -19.5471 6.31374 20.8449
rtibia 16.3202
rfoot -7.03561 -9.88586
rtoes -19.3451
lfemur -18.5765 -16.1115 -9.57945
ltibia 19.9605
lfoot -13.4507 19.2726
ltoes -31.6728
419
root -2.0642 17.8438 5.89575 7.95558 65.4059 -5.88866
lowerback 7.60815 0.728239 2.11101
upperback 1.57364 1.17316 0.404209
thorax -2.60435 0.580831 -0.882884
lowerneck -20.5542 0.509919 0.876338
upperneck 42.6936 0.984794 2.01803
head 20.2832 1.21209 1.23284
rclavicle 4.4697e-014 -3.17248e-014
rhumerus -19.4129 19.8087 -63.8217
rradius 73.2101
rwrist -27.9288
rhand -16.9342 6.65023
rfingers 7.12502
rthumb 9.29888 -23.1247
lclavicle 4.4697e-014 -3.17248e-014
lhumerus -10.9391 -22.946 73.6476
lradius 83.6056
lwrist 48.4224
lhand -8.92208 76.9878
lfingers 7.12502
lthumb -162.979 73.7379
rfemur -19.355 6.40441 20.8844
rtibia 16.2026
rfoot -6.99005 -9.95301
rtoes -19.4171
lfemur -18.4463 -16.1023 -9.58746
ltibia 20.0002
lfoot -13.5187 19.2963
ltoes -31.6387
